<mxfile host="app.diagrams.net" modified="2024-03-22T07:43:44.014Z" agent="Mozilla/5.0 (Windows NT 10.0; Win64; x64) AppleWebKit/537.36 (KHTML, like Gecko) Chrome/122.0.0.0 Safari/537.36 Edg/122.0.0.0" etag="cgZp9PRv31ggabmGUqC7" version="23.1.6" type="github">
  <diagram id="6a731a19-8d31-9384-78a2-239565b7b9f0" name="Page-1">
    <mxGraphModel dx="2779" dy="745" grid="1" gridSize="10" guides="1" tooltips="1" connect="1" arrows="1" fold="1" page="0" pageScale="1" pageWidth="1169" pageHeight="827" background="none" math="0" shadow="0">
      <root>
        <mxCell id="0" />
        <mxCell id="1" parent="0" />
        <mxCell id="BGKDG8QZM18YFSNDpb5Z-1816" value="Mindmap" style="swimlane;startSize=20;horizontal=1;containerType=tree;" vertex="1" parent="1">
          <mxGeometry x="-750" y="480" width="900" height="400" as="geometry">
            <mxRectangle x="-750" y="500" width="90" height="30" as="alternateBounds" />
          </mxGeometry>
        </mxCell>
        <mxCell id="BGKDG8QZM18YFSNDpb5Z-1818" value="" style="edgeStyle=entityRelationEdgeStyle;startArrow=none;endArrow=none;segment=10;curved=1;sourcePerimeterSpacing=0;targetPerimeterSpacing=0;rounded=0;" edge="1" parent="BGKDG8QZM18YFSNDpb5Z-1816" source="BGKDG8QZM18YFSNDpb5Z-1821" target="BGKDG8QZM18YFSNDpb5Z-1823">
          <mxGeometry relative="1" as="geometry" />
        </mxCell>
        <mxCell id="BGKDG8QZM18YFSNDpb5Z-1820" value="" style="edgeStyle=entityRelationEdgeStyle;startArrow=none;endArrow=none;segment=10;curved=1;sourcePerimeterSpacing=0;targetPerimeterSpacing=0;rounded=0;" edge="1" parent="BGKDG8QZM18YFSNDpb5Z-1816" source="BGKDG8QZM18YFSNDpb5Z-1821" target="BGKDG8QZM18YFSNDpb5Z-1825">
          <mxGeometry relative="1" as="geometry" />
        </mxCell>
        <mxCell id="BGKDG8QZM18YFSNDpb5Z-1821" value="&lt;font style=&quot;font-size: 14px;&quot;&gt;MES&lt;br&gt;Tech&lt;br&gt;&lt;/font&gt;" style="ellipse;whiteSpace=wrap;html=1;align=center;treeFolding=1;treeMoving=1;newEdgeStyle={&quot;edgeStyle&quot;:&quot;entityRelationEdgeStyle&quot;,&quot;startArrow&quot;:&quot;none&quot;,&quot;endArrow&quot;:&quot;none&quot;,&quot;segment&quot;:10,&quot;curved&quot;:1,&quot;sourcePerimeterSpacing&quot;:0,&quot;targetPerimeterSpacing&quot;:0};" vertex="1" parent="BGKDG8QZM18YFSNDpb5Z-1816">
          <mxGeometry x="368" y="130" width="100" height="40" as="geometry" />
        </mxCell>
        <mxCell id="BGKDG8QZM18YFSNDpb5Z-1823" value="&lt;font style=&quot;font-size: 14px;&quot;&gt;Test Deliverables&lt;/font&gt;" style="whiteSpace=wrap;html=1;shape=partialRectangle;top=0;left=0;bottom=1;right=0;points=[[0,1],[1,1]];fillColor=none;align=center;verticalAlign=bottom;routingCenterY=0.5;snapToPoint=1;autosize=1;treeFolding=1;treeMoving=1;newEdgeStyle={&quot;edgeStyle&quot;:&quot;entityRelationEdgeStyle&quot;,&quot;startArrow&quot;:&quot;none&quot;,&quot;endArrow&quot;:&quot;none&quot;,&quot;segment&quot;:10,&quot;curved&quot;:1,&quot;sourcePerimeterSpacing&quot;:0,&quot;targetPerimeterSpacing&quot;:0};" vertex="1" parent="BGKDG8QZM18YFSNDpb5Z-1816">
          <mxGeometry x="498" y="100" width="150" height="30" as="geometry" />
        </mxCell>
        <mxCell id="BGKDG8QZM18YFSNDpb5Z-1825" value="&lt;font style=&quot;font-size: 14px;&quot;&gt;Config&lt;/font&gt;" style="whiteSpace=wrap;html=1;shape=partialRectangle;top=0;left=0;bottom=1;right=0;points=[[0,1],[1,1]];fillColor=none;align=center;verticalAlign=bottom;routingCenterY=0.5;snapToPoint=1;autosize=1;treeFolding=1;treeMoving=1;newEdgeStyle={&quot;edgeStyle&quot;:&quot;entityRelationEdgeStyle&quot;,&quot;startArrow&quot;:&quot;none&quot;,&quot;endArrow&quot;:&quot;none&quot;,&quot;segment&quot;:10,&quot;curved&quot;:1,&quot;sourcePerimeterSpacing&quot;:0,&quot;targetPerimeterSpacing&quot;:0};" vertex="1" parent="BGKDG8QZM18YFSNDpb5Z-1816">
          <mxGeometry x="224" y="146" width="80" height="30" as="geometry" />
        </mxCell>
        <mxCell id="BGKDG8QZM18YFSNDpb5Z-1827" value="" style="edgeStyle=entityRelationEdgeStyle;startArrow=none;endArrow=none;segment=10;curved=1;sourcePerimeterSpacing=0;targetPerimeterSpacing=0;rounded=0;" edge="1" target="BGKDG8QZM18YFSNDpb5Z-1828" source="BGKDG8QZM18YFSNDpb5Z-1823" parent="BGKDG8QZM18YFSNDpb5Z-1816">
          <mxGeometry relative="1" as="geometry">
            <mxPoint x="-282" y="650" as="sourcePoint" />
          </mxGeometry>
        </mxCell>
        <mxCell id="BGKDG8QZM18YFSNDpb5Z-1828" value="Branch" style="whiteSpace=wrap;html=1;shape=partialRectangle;top=0;left=0;bottom=1;right=0;points=[[0,1],[1,1]];fillColor=none;align=center;verticalAlign=bottom;routingCenterY=0.5;snapToPoint=1;autosize=1;treeFolding=1;treeMoving=1;newEdgeStyle={&quot;edgeStyle&quot;:&quot;entityRelationEdgeStyle&quot;,&quot;startArrow&quot;:&quot;none&quot;,&quot;endArrow&quot;:&quot;none&quot;,&quot;segment&quot;:10,&quot;curved&quot;:1,&quot;sourcePerimeterSpacing&quot;:0,&quot;targetPerimeterSpacing&quot;:0};" vertex="1" parent="BGKDG8QZM18YFSNDpb5Z-1816">
          <mxGeometry x="678" y="104" width="72" height="26" as="geometry" />
        </mxCell>
        <mxCell id="BGKDG8QZM18YFSNDpb5Z-1829" value="" style="edgeStyle=entityRelationEdgeStyle;startArrow=none;endArrow=none;segment=10;curved=1;sourcePerimeterSpacing=0;targetPerimeterSpacing=0;rounded=0;" edge="1" target="BGKDG8QZM18YFSNDpb5Z-1830" source="BGKDG8QZM18YFSNDpb5Z-1821" parent="BGKDG8QZM18YFSNDpb5Z-1816">
          <mxGeometry relative="1" as="geometry">
            <mxPoint x="-282" y="650" as="sourcePoint" />
          </mxGeometry>
        </mxCell>
        <mxCell id="BGKDG8QZM18YFSNDpb5Z-1830" value="&lt;font style=&quot;font-size: 14px;&quot;&gt;Recreate Deliverables&lt;/font&gt;" style="whiteSpace=wrap;html=1;shape=partialRectangle;top=0;left=0;bottom=1;right=0;points=[[0,1],[1,1]];fillColor=none;align=center;verticalAlign=bottom;routingCenterY=0.5;snapToPoint=1;autosize=1;treeFolding=1;treeMoving=1;newEdgeStyle={&quot;edgeStyle&quot;:&quot;entityRelationEdgeStyle&quot;,&quot;startArrow&quot;:&quot;none&quot;,&quot;endArrow&quot;:&quot;none&quot;,&quot;segment&quot;:10,&quot;curved&quot;:1,&quot;sourcePerimeterSpacing&quot;:0,&quot;targetPerimeterSpacing&quot;:0};" vertex="1" parent="BGKDG8QZM18YFSNDpb5Z-1816">
          <mxGeometry x="498" y="180" width="180" height="30" as="geometry" />
        </mxCell>
        <mxCell id="BGKDG8QZM18YFSNDpb5Z-1843" value="&lt;font style=&quot;font-size: 14px;&quot;&gt;Branch&lt;/font&gt;" style="whiteSpace=wrap;html=1;shape=partialRectangle;top=0;left=0;bottom=1;right=0;points=[[0,1],[1,1]];fillColor=none;align=center;verticalAlign=bottom;routingCenterY=0.5;snapToPoint=1;recursiveResize=0;autosize=1;treeFolding=1;treeMoving=1;newEdgeStyle={&quot;edgeStyle&quot;:&quot;entityRelationEdgeStyle&quot;,&quot;startArrow&quot;:&quot;none&quot;,&quot;endArrow&quot;:&quot;none&quot;,&quot;segment&quot;:10,&quot;curved&quot;:1,&quot;sourcePerimeterSpacing&quot;:0,&quot;targetPerimeterSpacing&quot;:0};" vertex="1" parent="BGKDG8QZM18YFSNDpb5Z-1816">
          <mxGeometry x="498" y="300" width="80" height="30" as="geometry" />
        </mxCell>
        <mxCell id="BGKDG8QZM18YFSNDpb5Z-1844" value="" style="edgeStyle=entityRelationEdgeStyle;startArrow=none;endArrow=none;segment=10;curved=1;sourcePerimeterSpacing=0;targetPerimeterSpacing=0;rounded=0;exitX=1;exitY=0.5;exitDx=0;exitDy=0;" edge="1" target="BGKDG8QZM18YFSNDpb5Z-1843" parent="BGKDG8QZM18YFSNDpb5Z-1816" source="BGKDG8QZM18YFSNDpb5Z-1821">
          <mxGeometry relative="1" as="geometry">
            <mxPoint x="948" y="170" as="sourcePoint" />
          </mxGeometry>
        </mxCell>
        <mxCell id="BGKDG8QZM18YFSNDpb5Z-1847" value="&lt;font style=&quot;font-size: 14px;&quot;&gt;Install&lt;/font&gt;" style="whiteSpace=wrap;html=1;shape=partialRectangle;top=0;left=0;bottom=1;right=0;points=[[0,1],[1,1]];fillColor=none;align=center;verticalAlign=bottom;routingCenterY=0.5;snapToPoint=1;recursiveResize=0;autosize=1;treeFolding=1;treeMoving=1;newEdgeStyle={&quot;edgeStyle&quot;:&quot;entityRelationEdgeStyle&quot;,&quot;startArrow&quot;:&quot;none&quot;,&quot;endArrow&quot;:&quot;none&quot;,&quot;segment&quot;:10,&quot;curved&quot;:1,&quot;sourcePerimeterSpacing&quot;:0,&quot;targetPerimeterSpacing&quot;:0};" vertex="1" parent="BGKDG8QZM18YFSNDpb5Z-1816">
          <mxGeometry x="220" y="104" width="80" height="30" as="geometry" />
        </mxCell>
        <mxCell id="BGKDG8QZM18YFSNDpb5Z-1848" value="" style="edgeStyle=entityRelationEdgeStyle;startArrow=none;endArrow=none;segment=10;curved=1;sourcePerimeterSpacing=0;targetPerimeterSpacing=0;rounded=0;exitX=0;exitY=0.5;exitDx=0;exitDy=0;" edge="1" target="BGKDG8QZM18YFSNDpb5Z-1847" parent="BGKDG8QZM18YFSNDpb5Z-1816" source="BGKDG8QZM18YFSNDpb5Z-1821">
          <mxGeometry relative="1" as="geometry">
            <mxPoint x="204" y="150" as="sourcePoint" />
          </mxGeometry>
        </mxCell>
      </root>
    </mxGraphModel>
  </diagram>
</mxfile>
